<svg width="485" height="512" viewBox="0 0 485 512" fill="none" xmlns="http://www.w3.org/2000/svg">
<g clip-path="url(#clip0_1016_33)">
<path d="M12.946 135.53L242.5 14.1396L472.054 135.53V376.47L242.5 497.86L12.946 376.47V135.53Z" fill="#FFD700" stroke="#908181" stroke-width="25"/>
<g clip-path="url(#clip1_1016_33)">
<path d="M302.964 163.531C302.964 158.804 299.095 155 294.286 155C289.476 155 285.607 158.804 285.607 163.531V177.75H271.143C258.378 177.75 248 187.952 248 200.5V206.188V223.25V314.25C248 326.798 258.378 337 271.143 337H386.857C399.622 337 410 326.798 410 314.25V223.25V206.188V200.5C410 187.952 399.622 177.75 386.857 177.75H372.393V163.531C372.393 158.804 368.524 155 363.714 155C358.905 155 355.036 158.804 355.036 163.531V177.75H302.964V163.531ZM265.357 223.25H294.286V243.156H265.357V223.25ZM265.357 260.219H294.286V282.969H265.357V260.219ZM311.643 260.219H346.357V282.969H311.643V260.219ZM363.714 260.219H392.643V282.969H363.714V260.219ZM392.643 243.156H363.714V223.25H392.643V243.156ZM392.643 300.031V314.25C392.643 317.378 390.039 319.938 386.857 319.938H363.714V300.031H392.643ZM346.357 300.031V319.938H311.643V300.031H346.357ZM294.286 300.031V319.938H271.143C267.961 319.938 265.357 317.378 265.357 314.25V300.031H294.286ZM346.357 243.156H311.643V223.25H346.357V243.156Z" fill="#CDB11F"/>
</g>
<mask id="path-3-outside-1_1016_33" maskUnits="userSpaceOnUse" x="89" y="182" width="301" height="148" fill="black">
<rect fill="white" x="89" y="182" width="301" height="148"/>
<path d="M195.063 228.4C191.863 222.533 187.463 218.067 181.863 215C176.263 211.933 169.729 210.4 162.263 210.4C153.996 210.4 146.663 212.267 140.263 216C133.863 219.733 128.863 225.067 125.263 232C121.663 238.933 119.863 246.933 119.863 256C119.863 265.333 121.663 273.467 125.263 280.4C128.996 287.333 134.129 292.667 140.663 296.4C147.196 300.133 154.796 302 163.463 302C174.129 302 182.863 299.2 189.662 293.6C196.463 287.867 200.929 279.933 203.063 269.8H155.063V248.4H230.663V272.8C228.796 282.533 224.796 291.533 218.663 299.8C212.529 308.067 204.596 314.733 194.863 319.8C185.263 324.733 174.463 327.2 162.463 327.2C148.996 327.2 136.796 324.2 125.863 318.2C115.063 312.067 106.529 303.6 100.263 292.8C94.1292 282 91.0625 269.733 91.0625 256C91.0625 242.267 94.1292 230 100.263 219.2C106.529 208.267 115.063 199.8 125.863 193.8C136.796 187.667 148.929 184.6 162.263 184.6C177.996 184.6 191.663 188.467 203.263 196.2C214.863 203.8 222.863 214.533 227.263 228.4H195.063ZM387.178 186.4V326H359.178V266.6H299.378V326H271.378V186.4H299.378V243.8H359.178V186.4H387.178Z"/>
</mask>
<path d="M195.063 228.4C191.863 222.533 187.463 218.067 181.863 215C176.263 211.933 169.729 210.4 162.263 210.4C153.996 210.4 146.663 212.267 140.263 216C133.863 219.733 128.863 225.067 125.263 232C121.663 238.933 119.863 246.933 119.863 256C119.863 265.333 121.663 273.467 125.263 280.4C128.996 287.333 134.129 292.667 140.663 296.4C147.196 300.133 154.796 302 163.463 302C174.129 302 182.863 299.2 189.662 293.6C196.463 287.867 200.929 279.933 203.063 269.8H155.063V248.4H230.663V272.8C228.796 282.533 224.796 291.533 218.663 299.8C212.529 308.067 204.596 314.733 194.863 319.8C185.263 324.733 174.463 327.2 162.463 327.2C148.996 327.2 136.796 324.2 125.863 318.2C115.063 312.067 106.529 303.6 100.263 292.8C94.1292 282 91.0625 269.733 91.0625 256C91.0625 242.267 94.1292 230 100.263 219.2C106.529 208.267 115.063 199.8 125.863 193.8C136.796 187.667 148.929 184.6 162.263 184.6C177.996 184.6 191.663 188.467 203.263 196.2C214.863 203.8 222.863 214.533 227.263 228.4H195.063ZM387.178 186.4V326H359.178V266.6H299.378V326H271.378V186.4H299.378V243.8H359.178V186.4H387.178Z" fill="#908181"/>
<path d="M195.063 228.4L193.307 229.358L193.875 230.4H195.063V228.4ZM125.263 232L123.488 231.078L125.263 232ZM125.263 280.4L123.488 281.322L123.494 281.335L123.502 281.348L125.263 280.4ZM140.663 296.4L139.67 298.136L139.67 298.136L140.663 296.4ZM189.662 293.6L190.934 295.144L190.943 295.137L190.952 295.129L189.662 293.6ZM203.063 269.8L205.02 270.212L205.527 267.8H203.063V269.8ZM155.063 269.8H153.063V271.8H155.063V269.8ZM155.063 248.4V246.4H153.063V248.4H155.063ZM230.663 248.4H232.663V246.4H230.663V248.4ZM230.663 272.8L232.627 273.177L232.663 272.99V272.8H230.663ZM218.663 299.8L217.056 298.608L217.056 298.608L218.663 299.8ZM194.863 319.8L195.777 321.579L195.786 321.574L194.863 319.8ZM125.863 318.2L124.875 319.939L124.888 319.946L124.9 319.953L125.863 318.2ZM100.263 292.8L98.5234 293.788L98.528 293.796L98.5326 293.804L100.263 292.8ZM100.263 219.2L98.5273 218.205L98.5234 218.212L100.263 219.2ZM125.863 193.8L126.834 195.548L126.841 195.544L125.863 193.8ZM203.263 196.2L202.153 197.864L202.16 197.869L202.166 197.873L203.263 196.2ZM227.263 228.4V230.4H229.995L229.169 227.795L227.263 228.4ZM196.818 227.442C193.444 221.256 188.775 216.505 182.823 213.246L180.902 216.754C186.15 219.628 190.281 223.811 193.307 229.358L196.818 227.442ZM182.823 213.246C176.882 209.992 170.008 208.4 162.263 208.4V212.4C169.451 212.4 175.643 213.874 180.902 216.754L182.823 213.246ZM162.263 208.4C153.684 208.4 145.995 210.341 139.255 214.272L141.27 217.728C147.33 214.193 154.308 212.4 162.263 212.4V208.4ZM139.255 214.272C132.51 218.207 127.252 223.828 123.488 231.078L127.037 232.922C130.473 226.305 135.215 221.26 141.27 217.728L139.255 214.272ZM123.488 231.078C119.718 238.339 117.863 246.664 117.863 256H121.863C121.863 247.202 123.607 239.528 127.037 232.922L123.488 231.078ZM117.863 256C117.863 265.592 119.713 274.053 123.488 281.322L127.037 279.478C123.612 272.88 121.863 265.075 121.863 256H117.863ZM123.502 281.348C127.404 288.595 132.796 294.209 139.67 298.136L141.655 294.664C135.462 291.125 130.588 286.072 127.023 279.452L123.502 281.348ZM139.67 298.136C146.549 302.067 154.501 304 163.463 304V300C155.09 300 147.843 298.199 141.655 294.664L139.67 298.136ZM163.463 304C174.492 304 183.705 301.097 190.934 295.144L188.391 292.056C182.02 297.303 173.767 300 163.463 300V304ZM190.952 295.129C198.147 289.063 202.81 280.707 205.02 270.212L201.105 269.388C199.048 279.16 194.778 286.671 188.373 292.071L190.952 295.129ZM203.063 267.8H155.063V271.8H203.063V267.8ZM157.063 269.8V248.4H153.063V269.8H157.063ZM155.063 250.4H230.663V246.4H155.063V250.4ZM228.663 248.4V272.8H232.663V248.4H228.663ZM228.698 272.423C226.89 281.85 223.018 290.573 217.056 298.608L220.269 300.992C226.574 292.493 230.701 283.217 232.627 273.177L228.698 272.423ZM217.056 298.608C211.115 306.616 203.422 313.09 193.939 318.026L195.786 321.574C205.77 316.377 213.943 309.518 220.269 300.992L217.056 298.608ZM193.948 318.021C184.662 322.794 174.181 325.2 162.463 325.2V329.2C174.744 329.2 185.863 326.673 195.777 321.579L193.948 318.021ZM162.463 325.2C149.305 325.2 137.44 322.272 126.825 316.447L124.9 319.953C136.152 326.128 148.687 329.2 162.463 329.2V325.2ZM126.85 316.461C116.36 310.504 108.082 302.291 101.992 291.796L98.5326 293.804C104.976 304.909 113.765 313.63 124.875 319.939L126.85 316.461ZM102.002 291.812C96.0569 281.344 93.0625 269.425 93.0625 256H89.0625C89.0625 270.042 92.2014 282.656 98.5234 293.788L102.002 291.812ZM93.0625 256C93.0625 242.575 96.0569 230.656 102.002 220.188L98.5234 218.212C92.2014 229.344 89.0625 241.958 89.0625 256H93.0625ZM101.998 220.195C108.087 209.571 116.359 201.368 126.834 195.548L124.891 192.052C113.766 198.232 104.971 206.963 98.5273 218.205L101.998 220.195ZM126.841 195.544C137.456 189.589 149.249 186.6 162.263 186.6V182.6C148.609 182.6 136.135 185.744 124.884 192.056L126.841 195.544ZM162.263 186.6C177.653 186.6 190.923 190.377 202.153 197.864L204.372 194.536C192.402 186.556 178.338 182.6 162.263 182.6V186.6ZM202.166 197.873C213.362 205.208 221.088 215.554 225.356 229.005L229.169 227.795C224.637 213.513 216.363 202.392 204.359 194.527L202.166 197.873ZM227.263 226.4H195.063V230.4H227.263V226.4ZM387.178 186.4H389.178V184.4H387.178V186.4ZM387.178 326V328H389.178V326H387.178ZM359.178 326H357.178V328H359.178V326ZM359.178 266.6H361.178V264.6H359.178V266.6ZM299.378 266.6V264.6H297.378V266.6H299.378ZM299.378 326V328H301.378V326H299.378ZM271.378 326H269.378V328H271.378V326ZM271.378 186.4V184.4H269.378V186.4H271.378ZM299.378 186.4H301.378V184.4H299.378V186.4ZM299.378 243.8H297.378V245.8H299.378V243.8ZM359.178 243.8V245.8H361.178V243.8H359.178ZM359.178 186.4V184.4H357.178V186.4H359.178ZM385.178 186.4V326H389.178V186.4H385.178ZM387.178 324H359.178V328H387.178V324ZM361.178 326V266.6H357.178V326H361.178ZM359.178 264.6H299.378V268.6H359.178V264.6ZM297.378 266.6V326H301.378V266.6H297.378ZM299.378 324H271.378V328H299.378V324ZM273.378 326V186.4H269.378V326H273.378ZM271.378 188.4H299.378V184.4H271.378V188.4ZM297.378 186.4V243.8H301.378V186.4H297.378ZM299.378 245.8H359.178V241.8H299.378V245.8ZM361.178 243.8V186.4H357.178V243.8H361.178ZM359.178 188.4H387.178V184.4H359.178V188.4Z" fill="#846161" mask="url(#path-3-outside-1_1016_33)"/>
</g>
<defs>
<clipPath id="clip0_1016_33">
<rect width="485" height="512" fill="white"/>
</clipPath>
<clipPath id="clip1_1016_33">
<rect width="162" height="182" fill="white" transform="translate(248 155)"/>
</clipPath>
</defs>
</svg>
