<svg xmlns="http://www.w3.org/2000/svg" width="559" height="512" fill="none" viewBox="0 0 559 512">
  <path fill="gold" stroke="#918181" stroke-width="25"
    d="M49.946 135.53 279.5 14.14l229.554 121.39v240.94L279.5 497.86 49.946 376.47V135.53Z" />
  <path fill="#908181"
    d="M306.257 414.169c3.896-2.306 4.885-8.565 8.048-11.802 3.163-3.236 9.28-4.243 11.534-8.232 2.224-3.932.046-9.849 1.219-14.34 1.13-4.349 5.701-8.341 5.701-13.046s-4.813-8.703-5.947-13.04c-1.173-4.491 1.006-10.408-1.217-14.34-2.253-3.987-8.368-4.996-11.531-8.233-3.163-3.236-4.149-9.495-8.045-11.802-3.843-2.275-9.626-.047-14.015-1.247-4-1.162-7.901-6.087-12.499-6.087-4.598 0-8.5 4.925-12.736 6.085-4.403 1.198-10.171-1.029-14.022 1.243-3.896 2.307-4.883 8.566-8.046 11.8-3.16 3.236-9.279 4.246-11.534 8.232-2.224 3.921-.044 9.852-1.218 14.329-1.137 4.363-5.949 8.355-5.949 13.06s4.813 8.703 5.947 13.04c1.172 4.491-1.008 10.408 1.215 14.34 2.257 3.987 8.371 4.985 11.531 8.235 3.163 3.237 4.149 9.496 8.048 11.805 3.843 2.276 9.623.046 14.012 1.246 4.252 1.15 8.154 6.083 12.752 6.083 4.598 0 8.505-4.925 12.746-6.085 4.392-1.186 10.16 1.038 14.006-1.244Zm-49.046-47.42c0-12.624 9.979-22.812 22.294-22.812 12.314 0 22.293 10.188 22.293 22.812 0 12.595-9.979 22.812-22.293 22.812-12.315 0-22.294-10.208-22.294-22.812Zm-30.732 68.778a6.962 6.962 0 0 0 1.08 6.915c1.576 1.925 4.049 2.823 6.443 2.324l12.593-2.577 5.972 12.054c1.149 2.328 3.418 3.754 5.954 3.754.095 0 .185-.003.281-.008 2.647-.107 4.918-1.734 5.919-4.243l9.357-23.405c-14.967-1.323-28.424-8.018-38.512-18.235l-9.087 23.421Zm96.944-23.411c-10.074 10.217-23.534 16.913-38.512 18.236l9.358 23.405c1.001 2.508 3.271 4.135 5.919 4.243.105-.259-.034-.003.301-.003 2.534 0 4.801-1.418 5.949-3.747l5.972-12.056 12.593 2.576c2.395.499 4.869-.398 6.443-2.323a6.964 6.964 0 0 0 1.08-6.915l-9.103-23.416ZM267.357 72.875v5.875h24.286v-5.875c0-3.244 2.713-5.875 6.071-5.875 3.359 0 6.072 2.63 6.072 5.875v5.875h9.107c5.028 0 9.107 3.945 9.107 8.813v8.812h-85v-8.813c0-4.867 4.077-8.812 9.107-8.812h9.107v-5.875c0-3.244 2.713-5.875 6.072-5.875 3.358 0 6.071 2.63 6.071 5.875ZM237 102.25h85v49.938c0 4.865-4.079 8.812-9.107 8.812h-66.786c-5.03 0-9.107-3.947-9.107-8.812V102.25Zm12.143 20.562c0 1.616 1.358 2.938 3.036 2.938h6.071c1.67 0 3.036-1.322 3.036-2.938v-5.874c0-1.616-1.366-2.938-3.036-2.938h-6.071c-1.678 0-3.036 1.322-3.036 2.938v5.874Zm24.286 0c0 1.616 1.366 2.938 3.035 2.938h6.072c1.669 0 3.035-1.322 3.035-2.938v-5.874c0-1.616-1.366-2.938-3.035-2.938h-6.072c-1.669 0-3.035 1.322-3.035 2.938v5.874ZM300.75 114c-1.67 0-3.036 1.322-3.036 2.938v5.874c0 1.616 1.366 2.938 3.036 2.938h6.071c1.67 0 3.036-1.322 3.036-2.938v-5.874c0-1.616-1.366-2.938-3.036-2.938h-6.071Zm-51.607 32.312c0 1.616 1.358 2.938 3.036 2.938h6.071c1.67 0 3.036-1.322 3.036-2.938v-5.874c0-1.616-1.366-2.938-3.036-2.938h-6.071c-1.678 0-3.036 1.322-3.036 2.938v5.874Zm27.321-8.812c-1.669 0-3.035 1.322-3.035 2.938v5.874c0 1.616 1.366 2.938 3.035 2.938h6.072c1.669 0 3.035-1.322 3.035-2.938v-5.874c0-1.616-1.366-2.938-3.035-2.938h-6.072Zm21.25 8.812c0 1.616 1.366 2.938 3.036 2.938h6.071c1.67 0 3.036-1.322 3.036-2.938v-5.874c0-1.616-1.366-2.938-3.036-2.938h-6.071c-1.67 0-3.036 1.322-3.036 2.938v5.874Zm-76.566 74.168c-.448 0-.784-.16-1.008-.48a2.995 2.995 0 0 1-.432-1.2 9.375 9.375 0 0 1-.096-1.2v-2.4c0-1.28.112-2.56.336-3.84.256-1.312.4-2.656.432-4.032h-.048v-.192c0-.256-.032-.416-.096-.48l-.048-.144c-.832 0-1.648-.16-2.448-.48-.768-.32-1.152-.976-1.152-1.968 0-1.056.352-1.808 1.056-2.256.704-.448 1.536-.736 2.496-.864.48-.256.72-.8.72-1.632v-8.496c0-.64.032-1.28.096-1.92.064-.672.272-1.232.624-1.68.384-.48 1.04-.72 1.968-.72.736 0 1.392.272 1.968.816.608.512.912 1.136.912 1.872v11.52h11.952c.352 0 .672-.064.96-.192.32-.128.544-.368.672-.72 0-.448.032-1.088.096-1.92.096-.832.192-1.696.288-2.592.128-.928.24-1.776.336-2.544.128-.768.208-1.328.24-1.68.128-.928.4-1.792.816-2.592.448-.832 1.216-1.248 2.304-1.248.448 0 .864.064 1.248.192.416.128.736.464.96 1.008v1.248c0 1.664-.16 3.28-.48 4.848a23.944 23.944 0 0 0-.48 4.8v1.44c.768.288 1.36.624 1.776 1.008.416.384.624.928.624 1.632 0 .704-.112 1.216-.336 1.536a1.56 1.56 0 0 1-.768.672 9.61 9.61 0 0 1-.864.336 1.227 1.227 0 0 0-.672.528v6.816c0 .576-.08 1.264-.24 2.064-.128.8-.384 1.504-.768 2.112-.384.576-.928.864-1.632.864-1.024 0-1.76-.304-2.208-.912-.448-.608-.72-1.344-.816-2.208a21.835 21.835 0 0 1-.144-2.4c0-.992.032-1.968.096-2.928.064-.992.096-1.968.096-2.928a.906.906 0 0 0-.048-.288.638.638 0 0 0-.144-.384c-.577 0-1.344-.016-2.304-.048a83.631 83.631 0 0 0-2.88-.048 444.43 444.43 0 0 1-2.736-.096 49.03 49.03 0 0 0-1.728-.048h-1.152c-.704 0-1.28.096-1.728.288-.416.192-.688.56-.816 1.104a141.969 141.969 0 0 0-.144 3.888 40.692 40.692 0 0 1-.288 3.936 13.498 13.498 0 0 1-1.008 3.744 2.803 2.803 0 0 1-.288 1.008c-.16.32-.464.48-.912.48h-2.16Zm40.557 0a8.75 8.75 0 0 1-4.128-1.008 9.706 9.706 0 0 1-3.216-2.688 9.02 9.02 0 0 1-1.68-3.888v-2.448c0-1.792.32-3.6.96-5.424a17.926 17.926 0 0 1 2.736-5.04c1.184-1.568 2.592-2.816 4.224-3.744 1.632-.96 3.424-1.44 5.376-1.44.8 0 1.488.144 2.064.432a12.89 12.89 0 0 1 1.632.912c.512.288 1.008.464 1.488.528.256-1.312.608-2.176 1.056-2.592.448-.448 1.056-.672 1.824-.672.928 0 1.552.304 1.872.912.352.576.528 1.312.528 2.208 0 1.76-.048 3.488-.144 5.184a138.81 138.81 0 0 0-.096 5.232c0 1.408.08 2.864.24 4.368.16 1.504.24 2.96.24 4.368v1.008c0 .704-.144 1.36-.432 1.968-.256.576-.848.864-1.776.864-.864 0-1.488-.256-1.872-.768-.352-.544-.592-1.184-.72-1.92a65.263 65.263 0 0 0-.288-2.064l-.192-.192a231.586 231.586 0 0 0-2.928 2.976 10.529 10.529 0 0 1-2.784 2.16c-1.024.512-2.352.768-3.984.768Zm-.48-4.848c1.12 0 2.176-.336 3.168-1.008 1.024-.704 1.936-1.6 2.736-2.688.8-1.12 1.424-2.288 1.872-3.504.448-1.216.672-2.352.672-3.408 0-.8-.112-1.6-.336-2.4-.224-.832-.608-1.536-1.152-2.112-.512-.576-1.248-.864-2.208-.864-1.056 0-2.096.368-3.12 1.104-.992.736-1.888 1.68-2.688 2.832-.8 1.12-1.44 2.304-1.92 3.552-.48 1.216-.72 2.32-.72 3.312 0 .8.112 1.6.336 2.4.256.8.656 1.472 1.2 2.016.544.512 1.264.768 2.16.768Zm31.362 3.888h-1.44a7.874 7.874 0 0 1-1.2-.24 8.467 8.467 0 0 0-.912-.432 33.124 33.124 0 0 0-1.104-.528c-.352-.16-.608-.24-.768-.24-.224 0-.576.208-1.056.624-.448.384-.96.576-1.536.576-.832 0-1.408-.288-1.728-.864-.32-.608-.48-1.296-.48-2.064 0-.704.032-1.328.096-1.872.064-.576.192-1.216.384-1.92a163.6 163.6 0 0 0 1.104-10.848c.288-3.744.432-7.456.432-11.136v-2.736c0-.896-.032-1.792-.096-2.688-.032-.64.16-1.088.576-1.344.416-.256.88-.384 1.392-.384h.432c.704 0 1.296.176 1.776.528.48.352.784.976.912 1.872v2.592c0 1.856-.032 3.712-.096 5.568-.064 1.856-.112 3.84-.144 5.952h.144a21.507 21.507 0 0 1 4.368-3.84c1.6-1.056 3.376-1.584 5.328-1.584 1.504 0 2.96.352 4.368 1.056a9.198 9.198 0 0 1 3.552 2.88c.928 1.216 1.392 2.624 1.392 4.224 0 2.144-.4 4.224-1.2 6.24a18.093 18.093 0 0 1-3.36 5.376 17.088 17.088 0 0 1-4.992 3.84c-1.888.928-3.936 1.392-6.144 1.392Zm0-5.136c1.248 0 2.512-.304 3.792-.912a13.064 13.064 0 0 0 3.504-2.448 12.985 12.985 0 0 0 2.544-3.408c.672-1.248 1.008-2.512 1.008-3.792 0-1.024-.368-1.968-1.104-2.832-.704-.896-1.6-1.344-2.688-1.344-1.152 0-2.208.272-3.168.816a11.384 11.384 0 0 0-2.592 2.112 20.036 20.036 0 0 0-2.112 2.736c-.64.992-1.232 1.92-1.776 2.784a21.649 21.649 0 0 1-.864 1.728c-.32.64-.48 1.248-.48 1.824 0 .576.224 1.072.672 1.488.448.416.976.736 1.584.96.64.192 1.2.288 1.68.288Zm25.286-23.952c-.96 0-1.792-.304-2.496-.912-.704-.608-1.056-1.504-1.056-2.688 0-1.184.416-2.016 1.248-2.496.832-.48 1.68-.72 2.544-.72.992 0 1.824.304 2.496.912.704.608 1.056 1.52 1.056 2.736 0 1.152-.416 1.968-1.248 2.448-.8.48-1.648.72-2.544.72Zm-1.92 28.848c-.608 0-1.072-.32-1.392-.96a9.38 9.38 0 0 1-.72-1.92v-6.192c0-.16.032-.576.096-1.248.096-.704.192-1.52.288-2.448.128-.96.24-1.872.336-2.736.128-.896.224-1.6.288-2.112.096-.64.208-1.344.336-2.112.16-.768.432-1.44.816-2.016.384-.576.928-.864 1.632-.864.768 0 1.312.192 1.632.576.352.352.56.8.624 1.344.064.544.096 1.104.096 1.68v1.68c0 .064-.016.208-.048.432-.032.192-.08.416-.144.672-.224 1.12-.4 1.952-.528 2.496-.096.512-.176.96-.24 1.344-.032.352-.048.848-.048 1.488v1.44c.032.576.048 1.328.048 2.256 0 .416.016.832.048 1.248.032.384.048.8.048 1.248 0 .48-.048.992-.144 1.536a5.502 5.502 0 0 1-.864 2.208c-.448.64-1.168.96-2.16.96Zm17.267 1.68c-.992 0-1.728-.304-2.208-.912-.48-.608-.8-1.344-.96-2.208a17.437 17.437 0 0 1-.192-2.448v-1.824c0-2.016.032-4.048.096-6.096.096-2.048.16-4.256.192-6.624-.8.032-1.488.08-2.064.144-.544.064-1.104.096-1.68.096-1.472 0-2.208-.72-2.208-2.16 0-.544.096-1.056.288-1.536.192-.512.592-.832 1.2-.96l4.224-.96c.544-.128.896-.464 1.056-1.008.192-.576.288-1.232.288-1.968.032-.768.08-1.52.144-2.256.096-.736.336-1.344.72-1.824.416-.48 1.104-.72 2.064-.72.672 0 1.168.192 1.488.576.352.352.592.784.72 1.296s.192 1.008.192 1.488c0 .064-.016.288-.048.672-.032.352-.08.704-.144 1.056-.032.352-.048.576-.048.672v1.536h5.856c.704 0 1.248.336 1.632 1.008.384.64.576 1.296.576 1.968 0 .128-.048.368-.144.72a2.783 2.783 0 0 1-.528 1.008c-.256.288-.608.432-1.056.432h-6.144c-.032 0-.096.032-.192.096-.096.032-.208.128-.336.288l-.096.144c-.16.864-.272 1.568-.336 2.112-.064.512-.112.992-.144 1.44v1.536c0 1.76.032 3.52.096 5.28.096 1.76.144 3.616.144 5.568 0 .64-.048 1.296-.144 1.968-.096.672-.32 1.232-.672 1.68-.352.48-.896.72-1.632.72ZM202 279.04c-.928 0-1.6-.416-2.016-1.248-.416-.864-.624-1.728-.624-2.592a75.56 75.56 0 0 0 1.344-10.464c.192-3.456.304-7.12.336-10.992-1.248.032-2.288.08-3.12.144-.832.064-1.664.096-2.496.096h-3.072c-.768-.16-1.376-.448-1.824-.864-.416-.416-.624-1.024-.624-1.824 0-1.088.304-1.808.912-2.16.64-.384 1.392-.576 2.256-.576h.576c.192 0 .384.016.576.048.608-.064 1.536-.144 2.784-.24 1.248-.128 2.592-.24 4.032-.336 1.44-.128 2.768-.24 3.984-.336a93.874 93.874 0 0 0 2.688-.24h1.92c.704 0 1.552.048 2.544.144 1.024.096 2.032.304 3.024.624.992.288 1.808.736 2.448 1.344.672.608 1.008 1.424 1.008 2.448 0 .608-.224 1.216-.672 1.824-.448.576-1.024.864-1.728.864-.384 0-.784-.128-1.2-.384-.416-.288-.816-.48-1.2-.576a9.987 9.987 0 0 0-2.592-.432 72.693 72.693 0 0 0-2.592-.048H206.8l-.192.144c0 .416-.016 1.088-.048 2.016-.032.928-.064 1.984-.096 3.168l-.096 3.456v2.976a30.88 30.88 0 0 1-.288 4.176c-.16 1.376-.288 2.416-.384 3.12a15.02 15.02 0 0 1-.384 1.872c-.192.704-.4 1.376-.624 2.016-.224.64-.464 1.152-.72 1.536a3.419 3.419 0 0 1-.816.96c-.32.224-.704.336-1.152.336Zm23.508 1.44c-.576 0-1.008-.192-1.296-.576a3.182 3.182 0 0 1-.576-1.344 28.523 28.523 0 0 0-.288-1.44v-3.552c0-1.792.08-3.6.24-5.424.16-1.856.24-3.664.24-5.424 0-.832-.08-1.632-.24-2.4-.16-.768-.24-1.552-.24-2.352v-1.296c.256-.48.592-.832 1.008-1.056a3.076 3.076 0 0 1 1.392-.336c.704 0 1.232.208 1.584.624.352.384.592.848.72 1.392.16.544.304 1.04.432 1.488.128.416.336.656.624.72.928-.608 1.808-1.2 2.64-1.776.864-.576 1.76-1.04 2.688-1.392.96-.384 2.016-.576 3.168-.576.576 0 1.184.128 1.824.384a4.851 4.851 0 0 1 1.728 1.104c.48.448.72 1.008.72 1.68 0 .832-.336 1.44-1.008 1.824-.64.384-1.248.576-1.824.576-.384 0-.752-.08-1.104-.24-.352-.16-.72-.24-1.104-.24-1.12 0-2.176.288-3.168.864-.96.544-1.808 1.2-2.544 1.968s-1.328 1.488-1.776 2.16c-.128.288-.224.768-.288 1.44-.064.672-.112 1.44-.144 2.304l-.096 2.448c0 .8-.016 1.488-.048 2.064a19.204 19.204 0 0 1-.336 3.072c-.16.96-.464 1.76-.912 2.4-.448.608-1.12.912-2.016.912Zm25.885 0a8.75 8.75 0 0 1-4.128-1.008 9.706 9.706 0 0 1-3.216-2.688 9.02 9.02 0 0 1-1.68-3.888v-2.448c0-1.792.32-3.6.96-5.424a17.926 17.926 0 0 1 2.736-5.04c1.184-1.568 2.592-2.816 4.224-3.744 1.632-.96 3.424-1.44 5.376-1.44.8 0 1.488.144 2.064.432a12.89 12.89 0 0 1 1.632.912c.512.288 1.008.464 1.488.528.256-1.312.608-2.176 1.056-2.592.448-.448 1.056-.672 1.824-.672.928 0 1.552.304 1.872.912.352.576.528 1.312.528 2.208 0 1.76-.048 3.488-.144 5.184a138.81 138.81 0 0 0-.096 5.232c0 1.408.08 2.864.24 4.368.16 1.504.24 2.96.24 4.368v1.008c0 .704-.144 1.36-.432 1.968-.256.576-.848.864-1.776.864-.864 0-1.488-.256-1.872-.768-.352-.544-.592-1.184-.72-1.92a65.263 65.263 0 0 0-.288-2.064l-.192-.192a231.586 231.586 0 0 0-2.928 2.976 10.529 10.529 0 0 1-2.784 2.16c-1.024.512-2.352.768-3.984.768Zm-.48-4.848c1.12 0 2.176-.336 3.168-1.008 1.024-.704 1.936-1.6 2.736-2.688.8-1.12 1.424-2.288 1.872-3.504.448-1.216.672-2.352.672-3.408 0-.8-.112-1.6-.336-2.4-.224-.832-.608-1.536-1.152-2.112-.512-.576-1.248-.864-2.208-.864-1.056 0-2.096.368-3.12 1.104-.992.736-1.888 1.68-2.688 2.832-.8 1.12-1.44 2.304-1.92 3.552-.48 1.216-.72 2.32-.72 3.312 0 .8.112 1.6.336 2.4.256.8.656 1.472 1.2 2.016.544.512 1.264.768 2.16.768Zm31.362 3.648c-2.304 0-4.24-.56-5.808-1.68-1.536-1.152-2.704-2.64-3.504-4.464-.768-1.856-1.152-3.84-1.152-5.952 0-2.4.528-4.608 1.584-6.624 1.088-2.016 2.576-3.632 4.464-4.848 1.92-1.248 4.096-1.872 6.528-1.872.736 0 1.552.08 2.448.24a9.927 9.927 0 0 1 2.688.768c.864.352 1.568.832 2.112 1.44.576.608.864 1.392.864 2.352 0 .704-.256 1.248-.768 1.632-.512.384-1.136.576-1.872.576-.768 0-1.456-.192-2.064-.576a59.441 59.441 0 0 0-1.824-1.2 3.57 3.57 0 0 0-2.064-.624c-1.056 0-2.016.32-2.88.96-.864.64-1.6 1.456-2.208 2.448a14.167 14.167 0 0 0-1.44 3.168c-.32 1.088-.48 2.112-.48 3.072 0 1.632.32 2.896.96 3.792.672.864 1.568 1.472 2.688 1.824 1.152.32 2.432.48 3.84.48 1.312 0 2.528-.256 3.648-.768 1.152-.512 2.304-1.04 3.456-1.584h.96c1.44 0 2.16.72 2.16 2.16 0 .864-.336 1.6-1.008 2.208-.64.608-1.472 1.12-2.496 1.536a20.335 20.335 0 0 1-3.264.912 34.186 34.186 0 0 1-3.216.48c-.992.096-1.776.144-2.352.144Zm20.021 1.2a2.338 2.338 0 0 1-1.776-.768c-.448-.512-.672-1.088-.672-1.728v-.912l1.68-17.52v-10.848c0-.672.032-1.44.096-2.304.064-.864.288-1.616.672-2.256.416-.64 1.12-.96 2.112-.96.896 0 1.52.304 1.872.912.384.608.608 1.328.672 2.16.096.832.144 1.568.144 2.208 0 1.856-.08 3.76-.24 5.712a120.51 120.51 0 0 0-.24 6.288h.576c.064 0 .352-.08.864-.24.512-.192 1.12-.4 1.824-.624.704-.256 1.392-.512 2.064-.768a43.496 43.496 0 0 0 1.68-.72l1.92-.96c.704-.384 1.424-.72 2.16-1.008.736-.288 1.424-.432 2.064-.432.736 0 1.312.272 1.728.816.448.512.672 1.136.672 1.872 0 .864-.32 1.472-.96 1.824-.64.32-1.28.608-1.92.864-.32.16-.896.416-1.728.768-.8.352-1.712.736-2.736 1.152-1.024.384-2.016.768-2.976 1.152-.96.352-1.776.656-2.448.912v.144l.24.24c.224.224.448.416.672.576.256.16.496.352.72.576.48.288 1.2.752 2.16 1.392.96.64 1.984 1.328 3.072 2.064a166.38 166.38 0 0 1 3.072 2.064c.96.608 1.648 1.04 2.064 1.296.416.32.864.656 1.344 1.008.48.32.896.704 1.248 1.152.384.416.576.912.576 1.488 0 .768-.224 1.408-.672 1.92-.416.512-.928.768-1.536.768-.768 0-1.536-.224-2.304-.672a16.187 16.187 0 0 1-2.16-1.584 18.3 18.3 0 0 0-1.92-1.536c-.32-.224-.928-.624-1.824-1.2-.864-.576-1.84-1.216-2.928-1.92l-3.024-2.016-2.16-1.488h-.192l-.192.432-.96 8.496a2.75 2.75 0 0 1-.912 1.584c-.448.416-.944.624-1.488.624Zm38.904.24c-2.304 0-4.432-.352-6.384-1.056-1.92-.736-3.472-1.888-4.656-3.456-1.184-1.6-1.776-3.664-1.776-6.192 0-1.92.304-3.792.912-5.616a16.585 16.585 0 0 1 2.736-4.944 13.027 13.027 0 0 1 4.272-3.552c1.664-.896 3.536-1.344 5.616-1.344 1.408 0 2.72.288 3.936.864 1.248.544 2.24 1.36 2.976 2.448.768 1.056 1.152 2.352 1.152 3.888 0 1.472-.304 2.88-.912 4.224a12.118 12.118 0 0 1-2.496 3.6 12.118 12.118 0 0 1-3.6 2.496 10.16 10.16 0 0 1-4.128.864c-.224 0-.72-.048-1.488-.144a17.302 17.302 0 0 1-1.824-.384c-.32-.064-.576-.192-.768-.384a5.075 5.075 0 0 0-.336-.144c-.16-.096-.272-.144-.336-.144a4.553 4.553 0 0 0 1.392 2.352 7.256 7.256 0 0 0 2.496 1.344c.96.288 1.872.432 2.736.432.608 0 1.216-.032 1.824-.096.64-.096 1.312-.144 2.016-.144s1.312.192 1.824.576c.512.384.768 1.008.768 1.872 0 .704-.224 1.248-.672 1.632-.416.384-.96.64-1.632.768a10.01 10.01 0 0 1-1.968.192c-.64.032-1.2.048-1.68.048Zm-2.352-13.344c.96 0 1.904-.176 2.832-.528.96-.384 1.744-.944 2.352-1.68.64-.736.96-1.648.96-2.736 0-.928-.288-1.664-.864-2.208-.544-.544-1.28-.816-2.208-.816-.832 0-1.712.224-2.64.672a12.487 12.487 0 0 0-2.64 1.728c-.8.704-1.456 1.472-1.968 2.304-.512.8-.768 1.584-.768 2.352v.192c.832.128 1.664.288 2.496.48.832.16 1.648.24 2.448.24Zm18.707 13.104c-.576 0-1.008-.192-1.296-.576a3.182 3.182 0 0 1-.576-1.344 28.523 28.523 0 0 0-.288-1.44v-3.552c0-1.792.08-3.6.24-5.424.16-1.856.24-3.664.24-5.424 0-.832-.08-1.632-.24-2.4-.16-.768-.24-1.552-.24-2.352v-1.296c.256-.48.592-.832 1.008-1.056a3.076 3.076 0 0 1 1.392-.336c.704 0 1.232.208 1.584.624.352.384.592.848.72 1.392.16.544.304 1.04.432 1.488.128.416.336.656.624.72.928-.608 1.808-1.2 2.64-1.776.864-.576 1.76-1.04 2.688-1.392.96-.384 2.016-.576 3.168-.576.576 0 1.184.128 1.824.384a4.851 4.851 0 0 1 1.728 1.104c.48.448.72 1.008.72 1.68 0 .832-.336 1.44-1.008 1.824-.64.384-1.248.576-1.824.576-.384 0-.752-.08-1.104-.24-.352-.16-.72-.24-1.104-.24-1.12 0-2.176.288-3.168.864-.96.544-1.808 1.2-2.544 1.968s-1.328 1.488-1.776 2.16c-.128.288-.224.768-.288 1.44-.064.672-.112 1.44-.144 2.304l-.096 2.448c0 .8-.016 1.488-.048 2.064a19.204 19.204 0 0 1-.336 3.072c-.16.96-.464 1.76-.912 2.4-.448.608-1.12.912-2.016.912Z" />
</svg>